<svg width="32" height="32" viewBox="0 0 32 32" fill="none" xmlns="http://www.w3.org/2000/svg">
<g id="send">
<path id="Icon" d="M13.7352 18.2601L26.8033 5.19672M14.1067 18.8475L17.0699 24.774C17.786 26.2062 18.144 26.9222 18.5951 27.1143C18.9865 27.2809 19.434 27.2508 19.7995 27.0331C20.2207 26.7823 20.4795 26.0246 20.9969 24.5093L26.5957 8.11262C27.0466 6.79228 27.272 6.1321 27.1177 5.69539C26.9835 5.31546 26.6846 5.01662 26.3047 4.88239C25.868 4.72809 25.2078 4.95352 23.8875 5.40437L7.49082 11.0032C5.9755 11.5207 5.21784 11.7794 4.96702 12.2006C4.74936 12.5661 4.7192 13.0136 4.88584 13.405C5.07787 13.8561 5.79396 14.2141 7.22614 14.9302L13.1526 17.8935C13.3886 18.0114 13.5066 18.0704 13.6088 18.1493C13.6996 18.2192 13.7809 18.3005 13.8508 18.3913C13.9297 18.4935 13.9887 18.6115 14.1067 18.8475Z" stroke="#1A75E0" stroke-width="2" stroke-linecap="round" stroke-linejoin="round"/>
</g>
</svg>
